<mxfile host="Electron" agent="Mozilla/5.0 (Windows NT 10.0; Win64; x64) AppleWebKit/537.36 (KHTML, like Gecko) draw.io/26.0.16 Chrome/132.0.6834.196 Electron/34.2.0 Safari/537.36" version="26.0.16">
  <diagram name="Pagină-1" id="4fmtVH9h1uaw8nsHGq9W">
    <mxGraphModel dx="1313" dy="786" grid="1" gridSize="10" guides="1" tooltips="1" connect="1" arrows="1" fold="1" page="1" pageScale="1" pageWidth="827" pageHeight="1169" math="0" shadow="0">
      <root>
        <mxCell id="0" />
        <mxCell id="1" parent="0" />
        <mxCell id="7wEEFQjfbDm54Unw7VJD-20" style="edgeStyle=orthogonalEdgeStyle;rounded=0;orthogonalLoop=1;jettySize=auto;html=1;entryX=0;entryY=0.5;entryDx=0;entryDy=0;" parent="1" source="7wEEFQjfbDm54Unw7VJD-1" target="7wEEFQjfbDm54Unw7VJD-2" edge="1">
          <mxGeometry relative="1" as="geometry" />
        </mxCell>
        <mxCell id="7wEEFQjfbDm54Unw7VJD-1" value="" style="shape=cylinder3;whiteSpace=wrap;html=1;boundedLbl=1;backgroundOutline=1;size=15;fillColor=#0050ef;fontColor=#ffffff;strokeColor=#001DBC;" parent="1" vertex="1">
          <mxGeometry x="60" y="240" width="100" height="130" as="geometry" />
        </mxCell>
        <mxCell id="7wEEFQjfbDm54Unw7VJD-21" style="edgeStyle=orthogonalEdgeStyle;rounded=0;orthogonalLoop=1;jettySize=auto;html=1;exitX=1;exitY=0.5;exitDx=0;exitDy=0;entryX=0;entryY=0.5;entryDx=0;entryDy=0;" parent="1" source="7wEEFQjfbDm54Unw7VJD-2" target="7wEEFQjfbDm54Unw7VJD-3" edge="1">
          <mxGeometry relative="1" as="geometry" />
        </mxCell>
        <mxCell id="7wEEFQjfbDm54Unw7VJD-2" value="" style="rounded=1;whiteSpace=wrap;html=1;fillColor=#d80073;fontColor=#ffffff;strokeColor=#A50040;" parent="1" vertex="1">
          <mxGeometry x="230" y="267.5" width="140" height="75" as="geometry" />
        </mxCell>
        <mxCell id="7wEEFQjfbDm54Unw7VJD-22" style="edgeStyle=orthogonalEdgeStyle;rounded=0;orthogonalLoop=1;jettySize=auto;html=1;exitX=1;exitY=0.5;exitDx=0;exitDy=0;" parent="1" source="7wEEFQjfbDm54Unw7VJD-3" target="7wEEFQjfbDm54Unw7VJD-4" edge="1">
          <mxGeometry relative="1" as="geometry" />
        </mxCell>
        <mxCell id="7wEEFQjfbDm54Unw7VJD-3" value="" style="rounded=1;whiteSpace=wrap;html=1;fillColor=#60a917;fontColor=#ffffff;strokeColor=#2D7600;" parent="1" vertex="1">
          <mxGeometry x="426" y="267.5" width="140" height="75" as="geometry" />
        </mxCell>
        <mxCell id="7wEEFQjfbDm54Unw7VJD-23" style="edgeStyle=orthogonalEdgeStyle;rounded=0;orthogonalLoop=1;jettySize=auto;html=1;exitX=1;exitY=0.5;exitDx=0;exitDy=0;" parent="1" source="7wEEFQjfbDm54Unw7VJD-4" target="7wEEFQjfbDm54Unw7VJD-5" edge="1">
          <mxGeometry relative="1" as="geometry">
            <mxPoint x="770" y="305" as="targetPoint" />
          </mxGeometry>
        </mxCell>
        <mxCell id="7wEEFQjfbDm54Unw7VJD-4" value="" style="rounded=1;whiteSpace=wrap;html=1;fillColor=#f0a30a;fontColor=#000000;strokeColor=#BD7000;" parent="1" vertex="1">
          <mxGeometry x="620" y="267.5" width="140" height="75" as="geometry" />
        </mxCell>
        <mxCell id="7wEEFQjfbDm54Unw7VJD-24" style="edgeStyle=orthogonalEdgeStyle;rounded=0;orthogonalLoop=1;jettySize=auto;html=1;exitX=1;exitY=0.5;exitDx=0;exitDy=0;entryX=0;entryY=0.5;entryDx=0;entryDy=0;" parent="1" source="7wEEFQjfbDm54Unw7VJD-5" target="7wEEFQjfbDm54Unw7VJD-6" edge="1">
          <mxGeometry relative="1" as="geometry">
            <mxPoint x="990" y="305" as="targetPoint" />
          </mxGeometry>
        </mxCell>
        <mxCell id="7wEEFQjfbDm54Unw7VJD-5" value="" style="rounded=1;whiteSpace=wrap;html=1;fillColor=#e51400;fontColor=#ffffff;strokeColor=#B20000;" parent="1" vertex="1">
          <mxGeometry x="820" y="267.5" width="140" height="75" as="geometry" />
        </mxCell>
        <mxCell id="7wEEFQjfbDm54Unw7VJD-6" value="" style="rounded=1;whiteSpace=wrap;html=1;fillColor=#647687;strokeColor=#314354;fontColor=#ffffff;" parent="1" vertex="1">
          <mxGeometry x="1035" y="267.5" width="140" height="75" as="geometry" />
        </mxCell>
        <mxCell id="7wEEFQjfbDm54Unw7VJD-8" value="&lt;font style=&quot;font-size: 24px;&quot;&gt;Date&lt;/font&gt;" style="text;html=1;align=center;verticalAlign=middle;whiteSpace=wrap;rounded=0;" parent="1" vertex="1">
          <mxGeometry x="80" y="300" width="60" height="30" as="geometry" />
        </mxCell>
        <mxCell id="7wEEFQjfbDm54Unw7VJD-9" value="&lt;font style=&quot;font-size: 24px;&quot;&gt;Preprocesare&lt;/font&gt;" style="text;html=1;align=center;verticalAlign=middle;whiteSpace=wrap;rounded=0;" parent="1" vertex="1">
          <mxGeometry x="270" y="290" width="60" height="30" as="geometry" />
        </mxCell>
        <mxCell id="7wEEFQjfbDm54Unw7VJD-10" value="&lt;font style=&quot;font-size: 24px;&quot;&gt;Extragere caracteristici&lt;/font&gt;" style="text;html=1;align=center;verticalAlign=middle;whiteSpace=wrap;rounded=0;" parent="1" vertex="1">
          <mxGeometry x="466" y="290" width="60" height="30" as="geometry" />
        </mxCell>
        <mxCell id="yUTp2vS3OA7Z9cPinOaA-1" value="" style="edgeStyle=orthogonalEdgeStyle;rounded=0;orthogonalLoop=1;jettySize=auto;html=1;" edge="1" parent="1" target="7wEEFQjfbDm54Unw7VJD-5">
          <mxGeometry relative="1" as="geometry">
            <mxPoint x="770" y="305" as="sourcePoint" />
          </mxGeometry>
        </mxCell>
        <mxCell id="7wEEFQjfbDm54Unw7VJD-11" value="&lt;font style=&quot;font-size: 24px;&quot;&gt;Selecție caracteristici&lt;/font&gt;" style="text;html=1;align=center;verticalAlign=middle;whiteSpace=wrap;rounded=0;" parent="1" vertex="1">
          <mxGeometry x="659" y="290" width="70" height="30" as="geometry" />
        </mxCell>
        <mxCell id="7wEEFQjfbDm54Unw7VJD-12" value="&lt;font style=&quot;font-size: 24px;&quot;&gt;Clasificare&lt;/font&gt;" style="text;html=1;align=center;verticalAlign=middle;whiteSpace=wrap;rounded=0;" parent="1" vertex="1">
          <mxGeometry x="855" y="290" width="70" height="30" as="geometry" />
        </mxCell>
        <mxCell id="7wEEFQjfbDm54Unw7VJD-13" value="&lt;font style=&quot;font-size: 24px;&quot;&gt;Evaluare&lt;/font&gt;" style="text;html=1;align=center;verticalAlign=middle;whiteSpace=wrap;rounded=0;" parent="1" vertex="1">
          <mxGeometry x="1070" y="290" width="70" height="30" as="geometry" />
        </mxCell>
        <mxCell id="7wEEFQjfbDm54Unw7VJD-14" value="&lt;font style=&quot;font-size: 24px;&quot;&gt;Optical images&lt;/font&gt;&lt;div&gt;&lt;font style=&quot;font-size: 24px;&quot;&gt;Speech&lt;/font&gt;&lt;/div&gt;&lt;div&gt;&lt;font style=&quot;font-size: 24px;&quot;&gt;Text&lt;/font&gt;&lt;/div&gt;&lt;div&gt;&lt;font style=&quot;font-size: 24px;&quot;&gt;Video&lt;/font&gt;&lt;/div&gt;&lt;div&gt;&lt;font style=&quot;font-size: 24px;&quot;&gt;Radar / SAR&lt;/font&gt;&lt;/div&gt;&lt;div&gt;&lt;font style=&quot;font-size: 24px;&quot;&gt;Multispectral imagery&lt;/font&gt;&lt;/div&gt;&lt;div&gt;&lt;font style=&quot;font-size: 24px;&quot;&gt;Medical imagery&lt;/font&gt;&lt;/div&gt;&lt;div&gt;&lt;font style=&quot;font-size: 24px;&quot;&gt;Other (temperature, pressure, humidity)&lt;/font&gt;&lt;/div&gt;" style="text;html=1;align=center;verticalAlign=middle;whiteSpace=wrap;rounded=0;" parent="1" vertex="1">
          <mxGeometry x="10" y="480" width="200" height="150" as="geometry" />
        </mxCell>
        <mxCell id="7wEEFQjfbDm54Unw7VJD-15" value="&lt;font style=&quot;font-size: 23px;&quot;&gt;Normalizing&lt;/font&gt;&lt;div&gt;&lt;font style=&quot;font-size: 23px;&quot;&gt;Visual inspection&lt;br&gt;&lt;span style=&quot;background-color: transparent; color: light-dark(rgb(0, 0, 0), rgb(255, 255, 255));&quot;&gt;Split (ex. train, test, validation)&lt;/span&gt;&lt;br&gt;&lt;span style=&quot;background-color: transparent; color: light-dark(rgb(0, 0, 0), rgb(255, 255, 255));&quot;&gt;K-fold&lt;/span&gt;&lt;/font&gt;&lt;/div&gt;" style="text;html=1;align=center;verticalAlign=middle;whiteSpace=wrap;rounded=0;" parent="1" vertex="1">
          <mxGeometry x="200" y="360" width="200" height="150" as="geometry" />
        </mxCell>
        <mxCell id="7wEEFQjfbDm54Unw7VJD-16" value="&lt;font style=&quot;font-size: 23px;&quot;&gt;Fourier&lt;/font&gt;&lt;div&gt;&lt;font style=&quot;font-size: 23px;&quot;&gt;Gabor&lt;/font&gt;&lt;/div&gt;&lt;div&gt;&lt;font style=&quot;font-size: 23px;&quot;&gt;Haar&lt;/font&gt;&lt;/div&gt;&lt;div&gt;&lt;font style=&quot;font-size: 23px;&quot;&gt;Contours&lt;/font&gt;&lt;/div&gt;&lt;div&gt;&lt;font style=&quot;font-size: 23px;&quot;&gt;Key Points&lt;/font&gt;&lt;/div&gt;&lt;div&gt;&lt;font style=&quot;font-size: 23px;&quot;&gt;Histograms (intensity, gradients)&lt;/font&gt;&lt;/div&gt;&lt;div&gt;&lt;font style=&quot;font-size: 23px;&quot;&gt;Hidden/Latent/Embedded features&lt;/font&gt;&lt;/div&gt;&lt;div&gt;&lt;span style=&quot;font-size: 15px;&quot;&gt;&lt;br&gt;&lt;/span&gt;&lt;/div&gt;" style="text;html=1;align=center;verticalAlign=middle;whiteSpace=wrap;rounded=0;" parent="1" vertex="1">
          <mxGeometry x="396" y="410" width="200" height="150" as="geometry" />
        </mxCell>
        <mxCell id="7wEEFQjfbDm54Unw7VJD-17" value="&lt;font style=&quot;font-size: 23px;&quot;&gt;&amp;nbsp;&quot;dimensionality reduction&quot;&lt;/font&gt;&lt;div&gt;&lt;font style=&quot;font-size: 23px;&quot;&gt;PCA&lt;/font&gt;&lt;/div&gt;&lt;div&gt;&lt;font style=&quot;font-size: 23px;&quot;&gt;LDA&lt;/font&gt;&lt;/div&gt;&lt;div&gt;&lt;font style=&quot;font-size: 23px;&quot;&gt;SVD&lt;/font&gt;&lt;/div&gt;&lt;div&gt;&lt;font style=&quot;font-size: 23px;&quot;&gt;tSNE&lt;/font&gt;&lt;/div&gt;&lt;div&gt;&lt;font style=&quot;font-size: 23px;&quot;&gt;UMAP&lt;/font&gt;&lt;/div&gt;" style="text;html=1;align=center;verticalAlign=middle;whiteSpace=wrap;rounded=0;" parent="1" vertex="1">
          <mxGeometry x="594" y="370" width="200" height="150" as="geometry" />
        </mxCell>
        <mxCell id="7wEEFQjfbDm54Unw7VJD-18" value="&lt;font style=&quot;font-size: 23px;&quot;&gt;SVM&lt;/font&gt;&lt;div&gt;&lt;font style=&quot;font-size: 23px;&quot;&gt;K-means&lt;/font&gt;&lt;/div&gt;&lt;div&gt;&lt;font style=&quot;font-size: 23px;&quot;&gt;KNN&lt;/font&gt;&lt;/div&gt;&lt;div&gt;&lt;font style=&quot;font-size: 23px;&quot;&gt;Fuzzy C means&lt;/font&gt;&lt;/div&gt;&lt;div&gt;&lt;font style=&quot;font-size: 23px;&quot;&gt;Hierrarchical&lt;/font&gt;&lt;/div&gt;&lt;div&gt;&lt;font style=&quot;font-size: 23px;&quot;&gt;MLP&lt;/font&gt;&lt;/div&gt;&lt;div&gt;&lt;font style=&quot;font-size: 23px;&quot;&gt;RNN&lt;/font&gt;&lt;/div&gt;&lt;div&gt;&lt;font style=&quot;font-size: 23px;&quot;&gt;CNN&lt;/font&gt;&lt;/div&gt;&lt;div&gt;&lt;font style=&quot;font-size: 23px;&quot;&gt;Transformers (ChatGPT)&lt;/font&gt;&lt;/div&gt;" style="text;html=1;align=center;verticalAlign=middle;whiteSpace=wrap;rounded=0;" parent="1" vertex="1">
          <mxGeometry x="790" y="400" width="210" height="170" as="geometry" />
        </mxCell>
        <mxCell id="7wEEFQjfbDm54Unw7VJD-19" value="&lt;font style=&quot;font-size: 23px;&quot;&gt;TP, TN, FP, FN&lt;/font&gt;&lt;div&gt;&lt;font style=&quot;font-size: 23px;&quot;&gt;Recall&lt;/font&gt;&lt;/div&gt;&lt;div&gt;&lt;font style=&quot;font-size: 23px;&quot;&gt;F1&lt;/font&gt;&lt;/div&gt;&lt;div&gt;&lt;font style=&quot;font-size: 23px;&quot;&gt;Precision&lt;/font&gt;&lt;/div&gt;&lt;div&gt;&lt;font style=&quot;font-size: 23px;&quot;&gt;Accuracy&lt;/font&gt;&lt;/div&gt;&lt;div&gt;&lt;font style=&quot;font-size: 23px;&quot;&gt;ROC&lt;/font&gt;&lt;/div&gt;&lt;div&gt;&lt;font style=&quot;font-size: 23px;&quot;&gt;IOU&lt;/font&gt;&lt;/div&gt;" style="text;html=1;align=center;verticalAlign=middle;whiteSpace=wrap;rounded=0;" parent="1" vertex="1">
          <mxGeometry x="1000" y="360" width="210" height="170" as="geometry" />
        </mxCell>
      </root>
    </mxGraphModel>
  </diagram>
</mxfile>
